<mxfile host="app.diagrams.net" modified="2021-01-14T07:51:17.737Z" agent="5.0 (Windows NT 10.0; Win64; x64) AppleWebKit/537.36 (KHTML, like Gecko) Chrome/87.0.4280.141 Safari/537.36" etag="Ks1O86amSYseRQVs43XI" version="14.2.2" type="github">
  <diagram id="EPA5patVKf2uKafmL5wf" name="第 1 页">
    <mxGraphModel dx="1422" dy="762" grid="1" gridSize="10" guides="1" tooltips="1" connect="1" arrows="1" fold="1" page="1" pageScale="1" pageWidth="827" pageHeight="1169" math="0" shadow="0">
      <root>
        <mxCell id="0" />
        <mxCell id="1" parent="0" />
        <mxCell id="NVx79gTOeVUNUzUnF-uI-3" style="edgeStyle=orthogonalEdgeStyle;rounded=0;orthogonalLoop=1;jettySize=auto;html=1;" edge="1" parent="1" source="NVx79gTOeVUNUzUnF-uI-1" target="NVx79gTOeVUNUzUnF-uI-2">
          <mxGeometry relative="1" as="geometry" />
        </mxCell>
        <mxCell id="NVx79gTOeVUNUzUnF-uI-1" value="风控检查项" style="rounded=0;whiteSpace=wrap;html=1;" vertex="1" parent="1">
          <mxGeometry x="170" y="555" width="120" height="60" as="geometry" />
        </mxCell>
        <mxCell id="NVx79gTOeVUNUzUnF-uI-2" value="风控参数&lt;br&gt;【设置当日金额、累计金额等】" style="rounded=0;whiteSpace=wrap;html=1;" vertex="1" parent="1">
          <mxGeometry x="414" y="555" width="120" height="60" as="geometry" />
        </mxCell>
      </root>
    </mxGraphModel>
  </diagram>
</mxfile>
